<?xml version="1.0" standalone="no"?>
<!DOCTYPE svg PUBLIC "-//W3C//DTD SVG 20010904//EN"
 "http://www.w3.org/TR/2001/REC-SVG-20010904/DTD/svg10.dtd">
<svg version="1.0" xmlns="http://www.w3.org/2000/svg"
 width="1024.000000pt" height="1024.000000pt" viewBox="0 0 1024.000000 1024.000000"
 preserveAspectRatio="xMidYMid meet">

<g transform="translate(0.000000,1024.000000) scale(0.100000,-0.100000)"
fill="#000000" stroke="none">
<path d="M0 5120 l0 -5120 5120 0 5120 0 0 5120 0 5120 -5120 0 -5120 0 0
-5120z m5640 4995 c842 -92 1597 -371 2297 -847 431 -293 845 -692 1172 -1128
205 -274 315 -450 466 -745 283 -556 441 -1125 507 -1830 17 -180 17 -688 0
-870 -63 -679 -221 -1240 -518 -1835 -487 -976 -1272 -1754 -2259 -2240 -695
-341 -1393 -503 -2170 -503 -538 0 -953 60 -1440 208 -1204 366 -2236 1187
-2867 2282 -86 150 -244 479 -313 653 -304 764 -419 1678 -315 2500 126 994
508 1873 1139 2620 135 160 433 458 581 581 686 570 1411 916 2277 1088 192
38 401 64 678 85 116 9 628 -4 765 -19z m4145 -9456 c53 -14 109 -69 124 -125
23 -83 -36 -178 -126 -203 -50 -14 -153 -14 -208 0 -53 14 -109 69 -124 125
-22 80 29 169 115 199 48 17 159 19 219 4z"/>
<path d="M4975 9963 c-663 -19 -1319 -181 -1930 -477 -727 -351 -1374 -902
-1842 -1566 -252 -357 -487 -824 -623 -1238 -183 -559 -269 -1183 -241 -1754
16 -339 61 -703 81 -667 5 8 36 91 70 184 81 223 146 358 207 425 54 60 138
119 201 139 l41 14 -18 36 c-31 61 -44 141 -39 247 4 93 8 107 62 239 32 77
76 192 98 255 22 63 57 151 78 195 72 150 232 308 394 386 143 69 150 70 796
67 l575 -3 57 -28 c157 -77 209 -252 144 -490 -40 -145 -142 -440 -177 -508
-64 -127 -151 -218 -302 -317 -43 -28 -79 -54 -80 -58 -1 -3 27 -17 63 -30
122 -44 139 -88 100 -254 -88 -367 -282 -790 -419 -913 -85 -77 -21 -72 -929
-72 -446 0 -812 -3 -812 -7 0 -20 75 -260 113 -363 250 -666 622 -1242 1124
-1736 710 -699 1580 -1149 2553 -1319 639 -111 1362 -82 1988 80 1057 274
1984 893 2643 1765 557 739 870 1557 960 2515 19 199 17 677 -5 890 -37 380
-88 650 -181 959 -338 1122 -1117 2114 -2145 2733 -367 221 -783 398 -1204
512 -245 67 -389 95 -639 126 -151 19 -541 42 -632 38 -22 -1 -80 -3 -130 -5z
m-2 -718 c-1 -22 -22 -213 -47 -425 -25 -212 -62 -536 -82 -720 -28 -257 -41
-338 -52 -347 -17 -14 -168 -18 -176 -5 -2 4 -52 246 -110 537 -59 292 -127
626 -152 744 -38 175 -44 215 -33 222 8 5 40 9 72 9 50 0 59 -3 67 -22 10 -24
156 -756 210 -1058 18 -96 33 -176 34 -178 2 -1 11 91 20 205 20 242 93 993
101 1040 6 37 19 42 95 40 l55 -2 -2 -40z m665 8 l72 -6 0 -61 c0 -92 3 -90
-147 -82 l-129 8 -18 -257 c-10 -141 -16 -258 -13 -261 2 -3 56 -7 120 -11 64
-3 121 -9 126 -13 18 -10 0 -145 -19 -144 -8 0 -66 4 -127 8 l-113 7 0 -38 c0
-43 -16 -331 -25 -439 l-6 -71 118 -7 c161 -10 153 -5 153 -81 0 -35 -5 -67
-11 -70 -12 -8 -401 15 -410 24 -5 4 74 1475 80 1510 1 4 234 -6 349 -16z
m-1596 -308 c65 -478 161 -1235 156 -1240 -2 -2 -36 -7 -75 -11 l-70 -7 -7 59
c-4 33 -48 362 -97 733 -49 371 -89 685 -89 697 0 19 8 24 53 32 98 19 87 41
129 -263z m2219 230 c135 -24 161 -34 205 -79 75 -78 81 -173 30 -469 -35
-204 -72 -280 -160 -332 -16 -9 -16 -23 -2 -200 8 -104 18 -252 22 -329 l7
-138 -54 7 c-30 4 -62 11 -71 16 -19 10 -21 28 -43 379 -9 135 -19 248 -23
251 -4 4 -30 10 -59 14 -61 8 -53 26 -82 -180 -41 -286 -62 -410 -69 -417 -5
-5 -37 -3 -73 4 -59 12 -64 15 -62 38 2 23 47 333 163 1135 22 154 43 291 46
304 5 23 7 23 76 16 39 -3 106 -13 149 -20z m-2693 -420 c116 -526 177 -811
207 -960 24 -119 25 -130 10 -141 -16 -12 -113 -30 -119 -23 -9 10 -218 410
-353 674 -85 165 -152 291 -149 280 16 -62 42 -178 91 -405 31 -140 74 -333
96 -428 22 -95 37 -177 34 -181 -2 -5 -22 -12 -42 -15 -21 -4 -50 -9 -65 -12
-26 -5 -26 -3 -47 83 -19 84 -108 498 -227 1058 -30 143 -59 273 -65 289 -12
38 -5 44 67 61 46 11 62 11 71 2 7 -7 122 -230 257 -497 135 -267 246 -478
246 -469 0 8 -16 80 -35 158 -29 117 -165 724 -190 848 -6 30 -4 32 32 42 54
14 87 18 94 12 3 -4 42 -172 87 -376z m3617 234 c113 -35 165 -105 165 -224 1
-67 -51 -306 -68 -312 -19 -8 -97 6 -115 20 -15 11 -14 23 9 137 30 146 28
194 -11 227 -31 27 -105 32 -129 8 -37 -38 -90 -227 -84 -306 3 -47 14 -72 71
-167 100 -165 136 -247 143 -323 14 -149 -88 -473 -166 -529 -14 -10 -48 -24
-74 -31 -94 -23 -245 30 -294 104 -24 36 -27 50 -27 126 0 114 60 381 85 381
26 0 118 -29 125 -40 3 -5 -10 -69 -30 -142 -49 -188 -47 -241 15 -273 60 -31
109 -16 140 45 31 60 71 228 72 300 0 82 -21 139 -101 268 -128 207 -138 257
-91 437 17 65 42 145 56 176 58 129 155 166 309 118z m-4592 -197 c115 -322
349 -1035 363 -1103 20 -101 8 -169 -41 -226 -61 -71 -207 -118 -310 -99 -46
9 -119 74 -150 136 -24 47 -129 349 -313 898 -73 216 -105 325 -98 331 16 11
99 41 116 41 14 0 108 -261 336 -943 79 -236 101 -281 146 -306 23 -13 34 -14
75 -3 63 16 93 50 93 105 0 28 -67 244 -195 634 -107 325 -195 594 -195 598 0
10 83 44 110 44 23 1 28 -8 63 -107z m5399 -63 c131 -43 198 -119 198 -225 0
-80 -14 -126 -164 -550 -201 -570 -215 -602 -288 -658 -69 -52 -184 -50 -294
4 -102 50 -140 119 -132 239 6 74 45 195 219 677 127 351 153 408 214 469 67
68 138 80 247 44z m-1432 -2092 c0 -6 -99 -199 -221 -427 -121 -228 -323 -615
-449 -860 -126 -245 -287 -555 -359 -690 -72 -135 -222 -425 -332 -645 -111
-220 -211 -411 -222 -424 -12 -12 -65 -48 -117 -78 -147 -86 -325 -195 -435
-267 -129 -85 -170 -88 -144 -8 16 49 514 1053 729 1467 95 182 244 472 332
645 88 173 235 459 326 634 l166 319 63 46 c170 125 416 260 518 285 77 18
145 20 145 3z m-1340 -147 c48 -13 96 -44 117 -76 14 -21 19 -53 21 -135 7
-181 -36 -317 -306 -984 -242 -596 -379 -920 -452 -1066 -91 -181 -229 -312
-428 -407 l-77 -37 -490 -8 c-269 -4 -564 -6 -655 -5 -153 3 -168 5 -207 27
-97 55 -96 129 5 412 93 260 545 1459 674 1787 47 120 163 266 281 354 140
104 224 138 352 147 137 9 1125 1 1165 -9z m4079 -234 c69 -66 96 -166 70
-259 -10 -36 -126 -319 -471 -1147 -272 -654 -291 -690 -428 -830 -127 -129
-269 -217 -389 -240 -32 -6 -262 -10 -574 -10 l-519 0 -65 -60 c-139 -131
-281 -218 -408 -252 -38 -10 -155 -13 -475 -13 -414 0 -425 0 -422 19 2 11 63
142 137 292 l132 272 189 4 c183 4 192 5 266 35 193 76 285 178 359 392 11 30
19 58 19 63 0 4 -192 8 -427 8 l-428 -1 -22 26 c-50 57 -56 205 -12 320 32 86
441 935 489 1017 53 88 146 187 207 220 26 14 72 31 102 37 59 13 646 31 1004
31 l227 0 0 23 c0 34 20 56 65 72 33 12 148 14 692 12 l652 -2 30 -29z"/>
<path d="M6169 9037 c-9 -16 -84 -585 -78 -591 5 -5 45 -11 89 -14 74 -4 83
-3 106 19 13 12 29 39 34 58 15 58 60 347 60 389 0 59 -35 104 -90 118 -48 12
-119 24 -121 21z"/>
<path d="M7885 8593 c-52 -12 -77 -58 -163 -298 -255 -708 -269 -754 -254
-809 11 -40 50 -67 106 -73 61 -7 91 13 123 84 14 30 79 206 145 391 219 615
214 597 181 653 -22 37 -90 63 -138 52z"/>
<path d="M4350 5880 c-376 -5 -372 -5 -410 -65 -30 -49 -93 -210 -481 -1240
-27 -71 -52 -146 -55 -167 -6 -32 -3 -38 22 -55 26 -17 48 -18 278 -14 138 2
262 7 276 13 48 18 99 60 134 111 35 53 47 81 159 367 113 290 333 832 381
939 26 58 45 107 44 110 -2 3 -158 4 -348 1z"/>
<path d="M8291 5690 l-364 -5 -21 -28 c-12 -16 -69 -146 -127 -290 -170 -421
-400 -980 -414 -1007 -35 -71 -59 -66 268 -59 316 6 337 9 421 67 55 38 89 97
196 337 151 342 417 983 409 988 -2 1 -168 0 -368 -3z"/>
<path d="M6673 5630 c-73 -17 -114 -64 -168 -190 -96 -222 -155 -373 -150
-379 4 -3 146 -6 317 -6 299 0 310 1 321 20 32 53 257 546 257 562 0 7 -547 0
-577 -7z"/>
<path d="M1825 5831 c-107 -26 -169 -108 -221 -294 -15 -52 -24 -102 -21 -111
6 -14 38 -16 282 -16 166 0 293 4 319 11 64 16 101 60 142 168 19 51 52 128
74 172 l40 79 -292 -1 c-161 -1 -306 -4 -323 -8z"/>
<path d="M1330 4758 c-47 -13 -84 -42 -110 -83 -20 -32 -68 -164 -103 -282
l-16 -53 322 0 c196 0 337 4 360 11 56 15 113 71 136 134 27 73 56 217 48 238
-15 41 -62 47 -339 46 -145 0 -279 -5 -298 -11z"/>
<path d="M9724 586 c-8 -21 3 -36 27 -36 15 0 20 6 17 22 -4 27 -35 37 -44 14z"/>
<path d="M9602 534 c-31 -21 -18 -36 26 -29 l37 5 -35 -11 c-39 -12 -50 -24
-50 -56 0 -30 31 -45 80 -37 l40 7 0 59 c0 54 -2 59 -26 68 -35 14 -46 13 -72
-6z m58 -84 c0 -5 -9 -10 -20 -10 -11 0 -20 5 -20 10 0 6 9 10 20 10 11 0 20
-4 20 -10z"/>
<path d="M9730 475 c0 -58 2 -65 20 -65 18 0 20 7 20 65 0 58 -2 65 -20 65
-18 0 -20 -7 -20 -65z"/>
</g>
</svg>
